<svg width="20" height="19" viewBox="0 0 20 19" fill="none" xmlns="http://www.w3.org/2000/svg">
<path fill-rule="evenodd" clip-rule="evenodd" d="M19.75 9.42656C19.75 9.75486 19.6216 10.0697 19.3931 10.3019C19.1645 10.534 18.8546 10.6644 18.5314 10.6644L4.41253 10.6644L9.64525 15.9774C9.75856 16.0925 9.84843 16.2291 9.90975 16.3795C9.97107 16.5299 10.0026 16.691 10.0026 16.8538C10.0026 17.0166 9.97107 17.1777 9.90975 17.3281C9.84843 17.4785 9.75856 17.6151 9.64525 17.7302C9.53195 17.8453 9.39744 17.9366 9.24941 17.9989C9.10137 18.0612 8.94271 18.0932 8.78248 18.0932C8.62224 18.0932 8.46358 18.0612 8.31554 17.9989C8.16751 17.9366 8.033 17.8453 7.9197 17.7302L0.608015 10.303C0.494529 10.188 0.404493 10.0514 0.343059 9.90099C0.281625 9.7506 0.250002 9.58938 0.250002 9.42655C0.250002 9.26373 0.281625 9.10251 0.343059 8.95212C0.404493 8.80173 0.494529 8.66513 0.608015 8.55014L7.9197 1.12291C8.033 1.00782 8.16751 0.916521 8.31554 0.854234C8.46358 0.791946 8.62224 0.759887 8.78248 0.759887C8.94271 0.759887 9.10137 0.791946 9.24941 0.854234C9.39744 0.916521 9.53195 1.00782 9.64526 1.12291C9.87408 1.35535 10.0026 1.6706 10.0026 1.99932C10.0026 2.16209 9.97107 2.32326 9.90975 2.47364C9.84843 2.62401 9.75856 2.76064 9.64525 2.87574L4.41253 8.18868L18.5314 8.18868C18.8546 8.18868 19.1645 8.3191 19.3931 8.55125C19.6216 8.78339 19.75 9.09825 19.75 9.42656Z" fill="white"/>
</svg>
