<svg width="16" height="13" viewBox="0 0 16 13" fill="none" xmlns="http://www.w3.org/2000/svg">
<path d="M0 2.57349C0 2.04305 0.210714 1.53435 0.585786 1.15927C0.960859 0.7842 1.46957 0.573486 2 0.573486H14C14.5304 0.573486 15.0391 0.7842 15.4142 1.15927C15.7893 1.53435 16 2.04305 16 2.57349V10.5735C16 11.1039 15.7893 11.6126 15.4142 11.9877C15.0391 12.3628 14.5304 12.5735 14 12.5735H2C1.46957 12.5735 0.960859 12.3628 0.585786 11.9877C0.210714 11.6126 0 11.1039 0 10.5735V2.57349ZM2 1.57349C1.73478 1.57349 1.48043 1.67884 1.29289 1.86638C1.10536 2.05392 1 2.30827 1 2.57349V2.79049L8 6.99049L15 2.79049V2.57349C15 2.30827 14.8946 2.05392 14.7071 1.86638C14.5196 1.67884 14.2652 1.57349 14 1.57349H2ZM15 3.95649L10.292 6.78149L15 9.67849V3.95649ZM14.966 10.8325L9.326 7.36149L8 8.15649L6.674 7.36149L1.034 10.8315C1.09083 11.0443 1.21632 11.2324 1.39099 11.3665C1.56566 11.5007 1.77975 11.5735 2 11.5735H14C14.2201 11.5735 14.4341 11.5009 14.6088 11.3669C14.7834 11.233 14.909 11.0451 14.966 10.8325ZM1 9.67849L5.708 6.78149L1 3.95649V9.67849Z" fill="#6D6D6D"/>
</svg>
