<svg width="20" height="20" viewBox="0 0 20 20" fill="none" xmlns="http://www.w3.org/2000/svg">
<g clip-path="url(#clip0_1_3919)">
<path fill-rule="evenodd" clip-rule="evenodd" d="M12.1035 15.1891C12.1035 15.3496 12.0397 15.5035 11.9262 15.617C11.8127 15.7305 11.6588 15.7943 11.4983 15.7943H1.81552C1.65502 15.7943 1.50109 15.7305 1.3876 15.617C1.27411 15.5035 1.21035 15.3496 1.21035 15.1891V4.29599C1.21035 4.13549 1.27411 3.98156 1.3876 3.86807C1.50109 3.75457 1.65502 3.69082 1.81552 3.69082H11.4983C11.6588 3.69082 11.8127 3.75457 11.9262 3.86807C12.0397 3.98156 12.1035 4.13549 12.1035 4.29599V6.71668C12.1035 6.87718 12.1672 7.03111 12.2807 7.1446C12.3942 7.2581 12.5481 7.32186 12.7086 7.32186C12.8691 7.32186 13.0231 7.2581 13.1366 7.1446C13.2501 7.03111 13.3138 6.87718 13.3138 6.71668V4.29599C13.3138 3.81448 13.1225 3.3527 12.7821 3.01222C12.4416 2.67175 11.9798 2.48047 11.4983 2.48047H1.81552C1.33401 2.48047 0.87223 2.67175 0.531754 3.01222C0.191277 3.3527 0 3.81448 0 4.29599L0 15.1891C0 15.6706 0.191277 16.1324 0.531754 16.4729C0.87223 16.8134 1.33401 17.0046 1.81552 17.0046H11.4983C11.9798 17.0046 12.4416 16.8134 12.7821 16.4729C13.1225 16.1324 13.3138 15.6706 13.3138 15.1891V12.7684C13.3138 12.6079 13.2501 12.454 13.1366 12.3405C13.0231 12.227 12.8691 12.1632 12.7086 12.1632C12.5481 12.1632 12.3942 12.227 12.2807 12.3405C12.1672 12.454 12.1035 12.6079 12.1035 12.7684V15.1891Z" fill="#6D6D6D"/>
<path fill-rule="evenodd" clip-rule="evenodd" d="M19.1889 10.1713C19.2452 10.1151 19.2899 10.0483 19.3204 9.97478C19.3509 9.90126 19.3667 9.82244 19.3667 9.74284C19.3667 9.66324 19.3509 9.58442 19.3204 9.51089C19.2899 9.43737 19.2452 9.37059 19.1889 9.31437L15.5578 5.68333C15.4442 5.5697 15.2901 5.50586 15.1294 5.50586C14.9687 5.50586 14.8145 5.5697 14.7009 5.68333C14.5873 5.79697 14.5234 5.95109 14.5234 6.1118C14.5234 6.2725 14.5873 6.42662 14.7009 6.54026L17.2995 9.13766H6.65693C6.49643 9.13766 6.3425 9.20142 6.22901 9.31492C6.11552 9.42841 6.05176 9.58234 6.05176 9.74284C6.05176 9.90334 6.11552 10.0573 6.22901 10.1708C6.3425 10.2843 6.49643 10.348 6.65693 10.348H17.2995L14.7009 12.9454C14.5873 13.0591 14.5234 13.2132 14.5234 13.3739C14.5234 13.5346 14.5873 13.6887 14.7009 13.8023C14.8145 13.916 14.9687 13.9798 15.1294 13.9798C15.2901 13.9798 15.4442 13.916 15.5578 13.8023L19.1889 10.1713Z" fill="#6D6D6D"/>
</g>
<defs>
<clipPath id="clip0_1_3919">
<rect width="19.3655" height="19.3655" fill="white" transform="translate(0 0.0585938)"/>
</clipPath>
</defs>
</svg>
