<svg width="21" height="21" viewBox="0 0 21 21" fill="none" xmlns="http://www.w3.org/2000/svg">
<path d="M20.0328 10.7605C20.0328 9.94116 19.9664 9.34322 19.8225 8.72314H10.4658V12.4215H15.958C15.8473 13.3405 15.2493 14.7247 13.9206 15.6547L13.9019 15.7786L16.8603 18.0704L17.0653 18.0909C18.9477 16.3524 20.0328 13.7945 20.0328 10.7605Z" fill="white"/>
<path d="M10.4657 20.5047C13.1563 20.5047 15.4152 19.6188 17.0651 18.0908L13.9204 15.6547C13.0789 16.2415 11.9494 16.6512 10.4657 16.6512C7.83032 16.6512 5.5936 14.9128 4.79627 12.51L4.6794 12.5199L1.60322 14.9006L1.56299 15.0125C3.20177 18.2679 6.56795 20.5047 10.4657 20.5047Z" fill="white"/>
<path d="M4.79626 12.5101C4.58588 11.89 4.46412 11.2256 4.46412 10.5391C4.46412 9.85251 4.58588 9.18816 4.78519 8.56808L4.77962 8.43602L1.66489 6.01709L1.56298 6.06556C0.887557 7.41648 0.5 8.9335 0.5 10.5391C0.5 12.1446 0.887557 13.6616 1.56298 15.0125L4.79626 12.5101Z" fill="white"/>
<path d="M10.4657 4.42685C12.337 4.42685 13.5992 5.23517 14.319 5.91066L17.1315 3.16456C15.4042 1.55898 13.1563 0.573486 10.4657 0.573486C6.56795 0.573486 3.20177 2.8102 1.56299 6.06562L4.7852 8.56814C5.5936 6.16532 7.83032 4.42685 10.4657 4.42685Z" fill="white"/>
</svg>
