<svg width="16" height="17" viewBox="0 0 16 17" fill="none" xmlns="http://www.w3.org/2000/svg">
<path d="M8 8.57349C8.79565 8.57349 9.55871 8.25742 10.1213 7.69481C10.6839 7.1322 11 6.36914 11 5.57349C11 4.77784 10.6839 4.01478 10.1213 3.45217C9.55871 2.88956 8.79565 2.57349 8 2.57349C7.20435 2.57349 6.44129 2.88956 5.87868 3.45217C5.31607 4.01478 5 4.77784 5 5.57349C5 6.36914 5.31607 7.1322 5.87868 7.69481C6.44129 8.25742 7.20435 8.57349 8 8.57349ZM10 5.57349C10 6.10392 9.78929 6.61263 9.41421 6.9877C9.03914 7.36277 8.53043 7.57349 8 7.57349C7.46957 7.57349 6.96086 7.36277 6.58579 6.9877C6.21071 6.61263 6 6.10392 6 5.57349C6 5.04305 6.21071 4.53435 6.58579 4.15927C6.96086 3.7842 7.46957 3.57349 8 3.57349C8.53043 3.57349 9.03914 3.7842 9.41421 4.15927C9.78929 4.53435 10 5.04305 10 5.57349ZM14 13.5735C14 14.5735 13 14.5735 13 14.5735H3C3 14.5735 2 14.5735 2 13.5735C2 12.5735 3 9.57349 8 9.57349C13 9.57349 14 12.5735 14 13.5735ZM13 13.5695C12.999 13.3235 12.846 12.5835 12.168 11.9055C11.516 11.2535 10.289 10.5735 8 10.5735C5.71 10.5735 4.484 11.2535 3.832 11.9055C3.154 12.5835 3.002 13.3235 3 13.5695H13Z" fill="#6D6D6D"/>
</svg>
