<svg width="16" height="16" viewBox="0 0 16 16" fill="none" xmlns="http://www.w3.org/2000/svg">
<path d="M7.83789 8.25817C8.8009 8.25817 9.72447 7.87562 10.4054 7.19467C11.0864 6.51372 11.4689 5.59015 11.4689 4.62713C11.4689 3.66412 11.0864 2.74055 10.4054 2.0596C9.72447 1.37865 8.8009 0.996094 7.83789 0.996094C6.87487 0.996094 5.95131 1.37865 5.27035 2.0596C4.5894 2.74055 4.20685 3.66412 4.20685 4.62713C4.20685 5.59015 4.5894 6.51372 5.27035 7.19467C5.95131 7.87562 6.87487 8.25817 7.83789 8.25817V8.25817ZM10.2586 4.62713C10.2586 5.26914 10.0035 5.88486 9.54957 6.33882C9.09561 6.79279 8.47989 7.04783 7.83789 7.04783C7.19588 7.04783 6.58017 6.79279 6.1262 6.33882C5.67223 5.88486 5.41719 5.26914 5.41719 4.62713C5.41719 3.98513 5.67223 3.36941 6.1262 2.91545C6.58017 2.46148 7.19588 2.20644 7.83789 2.20644C8.47989 2.20644 9.09561 2.46148 9.54957 2.91545C10.0035 3.36941 10.2586 3.98513 10.2586 4.62713V4.62713ZM15.1 14.3099C15.1 15.5203 13.8896 15.5203 13.8896 15.5203H1.78615C1.78615 15.5203 0.575806 15.5203 0.575806 14.3099C0.575806 13.0996 1.78615 9.46852 7.83789 9.46852C13.8896 9.46852 15.1 13.0996 15.1 14.3099ZM13.8896 14.3051C13.8884 14.0073 13.7032 13.1117 12.8826 12.291C12.0935 11.5019 10.6084 10.6789 7.83789 10.6789C5.06619 10.6789 3.58231 11.5019 2.79316 12.291C1.97255 13.1117 1.78857 14.0073 1.78615 14.3051H13.8896Z" fill="#6D6D6D"/>
</svg>
