<svg width="20" height="20" viewBox="0 0 20 20" fill="none" xmlns="http://www.w3.org/2000/svg">
<g clip-path="url(#clip0_1_3911)">
<path d="M9.68277 18.5927C7.43575 18.5927 5.28075 17.7001 3.69186 16.1112C2.10297 14.5223 1.21035 12.3673 1.21035 10.1203C1.21035 7.87325 2.10297 5.71825 3.69186 4.12936C5.28075 2.54047 7.43575 1.64785 9.68277 1.64785C11.9298 1.64785 14.0848 2.54047 15.6737 4.12936C17.2626 5.71825 18.1552 7.87325 18.1552 10.1203C18.1552 12.3673 17.2626 14.5223 15.6737 16.1112C14.0848 17.7001 11.9298 18.5927 9.68277 18.5927ZM9.68277 19.803C12.2508 19.803 14.7137 18.7829 16.5295 16.967C18.3454 15.1512 19.3655 12.6883 19.3655 10.1203C19.3655 7.55224 18.3454 5.08939 16.5295 3.27352C14.7137 1.45765 12.2508 0.4375 9.68277 0.4375C7.11474 0.4375 4.65189 1.45765 2.83602 3.27352C1.02015 5.08939 0 7.55224 0 10.1203C0 12.6883 1.02015 15.1512 2.83602 16.967C4.65189 18.7829 7.11474 19.803 9.68277 19.803Z" fill="#6D6D6D"/>
<path d="M10.8084 8.41138L8.0367 8.75875L7.93745 9.21868L8.48211 9.31914C8.83795 9.40386 8.90815 9.53216 8.83069 9.88679L7.93745 14.0843C7.70264 15.17 8.06454 15.6807 8.91541 15.6807C9.57505 15.6807 10.3412 15.3757 10.6886 14.9569L10.7951 14.4534C10.553 14.6665 10.1996 14.7512 9.96478 14.7512C9.63194 14.7512 9.5109 14.5176 9.59684 14.1061L10.8084 8.41138ZM10.8931 5.88417C10.8931 6.20518 10.7656 6.51303 10.5386 6.74002C10.3116 6.967 10.0038 7.09452 9.68277 7.09452C9.36177 7.09452 9.05391 6.967 8.82693 6.74002C8.59994 6.51303 8.47242 6.20518 8.47242 5.88417C8.47242 5.56317 8.59994 5.25531 8.82693 5.02833C9.05391 4.80135 9.36177 4.67383 9.68277 4.67383C10.0038 4.67383 10.3116 4.80135 10.5386 5.02833C10.7656 5.25531 10.8931 5.56317 10.8931 5.88417Z" fill="#6D6D6D"/>
</g>
<defs>
<clipPath id="clip0_1_3911">
<rect width="19.3655" height="19.3655" fill="white" transform="translate(0 0.4375)"/>
</clipPath>
</defs>
</svg>
