<svg width="307" height="42" viewBox="0 0 307 42" fill="none" xmlns="http://www.w3.org/2000/svg">
<path d="M117.861 0H82.9467H82.541H73.5545L59.7256 33.6547L45.8967 0H38.6131H36.5045H11.6006L0 12.3048V41.9026H35.3205C37.1364 41.9026 38.6131 40.3363 38.6131 38.4101C38.6131 36.484 37.1364 34.9177 35.3205 34.9177H8.86672V22.5353H32.7064C34.5223 22.5353 35.999 20.9689 35.999 19.0428C35.999 17.1166 34.5223 15.5503 32.7064 15.5503H8.86672V6.97788H38.6131V5.11524L53.7258 41.8956H65.7254L82.541 0.973641V41.8956H112.78L119.365 34.9106H91.4077V22.5282H115.247C117.063 22.5282 118.54 20.9619 118.54 19.0357C118.54 17.1096 117.063 15.5433 115.247 15.5433H91.4077V6.97082H117.861C119.677 6.97082 121.154 5.40451 121.154 3.47836C121.154 1.55926 119.677 0 117.861 0Z" fill="white"/>
<path d="M209.163 0H169.685H168.102H160.812V29.8448L138.375 0H128.464V37.2037C128.464 39.8001 130.447 41.9097 132.901 41.9097C135.349 41.9097 137.338 39.8001 137.338 37.2037V12.0649L159.774 41.9097H169.685V6.98494H185.842V40.7879L194.715 33.2244V6.98494H209.163C210.979 6.98494 212.455 5.41861 212.455 3.49246C212.455 1.55925 210.979 0 209.163 0Z" fill="white"/>
<path d="M293.985 0H283.569L276.983 6.98494C277.083 6.98494 277.19 6.98494 277.289 6.98494H294.511C296.074 6.98494 297.644 6.98494 297.644 9.20742V32.7022C297.644 34.9247 296.081 34.9247 294.511 34.9247H277.289C275.726 34.9247 274.157 34.9247 274.157 32.7022V9.98353L265.29 19.3885V33.3302C265.29 41.9026 271.549 41.9026 277.815 41.9026H293.992C300.251 41.9026 306.517 41.9026 306.517 33.3302V8.56537C306.51 -1.14387e-05 300.244 0 293.985 0Z" fill="white"/>
<path d="M242.967 0H232.55L225.965 6.98494C226.065 6.98494 226.171 6.98494 226.271 6.98494H243.492C245.055 6.98494 246.625 6.98494 246.625 9.20742V32.7022C246.625 34.9247 245.062 34.9247 243.492 34.9247H226.271C224.708 34.9247 223.138 34.9247 223.138 32.7022V9.98353L214.271 19.3885V33.3302C214.271 41.9026 220.531 41.9026 226.796 41.9026H242.973C249.233 41.9026 255.498 41.9026 255.498 33.3302V8.56537C255.492 -1.14387e-05 249.233 0 242.967 0Z" fill="white"/>
</svg>
