<svg width="14" height="17" viewBox="0 0 14 17" fill="none" xmlns="http://www.w3.org/2000/svg">
<path d="M11.6666 5.90682V5.24015C11.6666 4.00248 11.1749 2.81549 10.2997 1.94032C9.42458 1.06515 8.2376 0.573486 6.99992 0.573486C5.76224 0.573486 4.57526 1.06515 3.70009 1.94032C2.82492 2.81549 2.33325 4.00248 2.33325 5.24015V5.90682H0.333252V14.5735C0.333252 15.1039 0.543966 15.6126 0.919038 15.9877C1.29411 16.3628 1.80282 16.5735 2.33325 16.5735H11.6666C12.197 16.5735 12.7057 16.3628 13.0808 15.9877C13.4559 15.6126 13.6666 15.1039 13.6666 14.5735V5.90682H11.6666ZM3.66658 5.24015C3.66659 4.3561 4.01777 3.50825 4.6429 2.88313C5.26802 2.25801 6.11586 1.90682 6.99992 1.90682C7.88397 1.90682 8.73182 2.25801 9.35694 2.88313C9.98206 3.50825 10.3333 4.3561 10.3333 5.24015V5.90682H3.66658V5.24015ZM12.3333 14.5735C12.3333 14.7503 12.263 14.9199 12.138 15.0449C12.013 15.1699 11.8434 15.2402 11.6666 15.2402H2.33325C2.15644 15.2402 1.98687 15.1699 1.86185 15.0449C1.73682 14.9199 1.66659 14.7503 1.66659 14.5735V7.24015H12.3333V14.5735Z" fill="#6D6D6D"/>
<path d="M7.66659 9.90674H6.33325V12.5734H7.66659V9.90674Z" fill="#6D6D6D"/>
</svg>
