<svg width="20" height="16" viewBox="0 0 20 16" fill="none" xmlns="http://www.w3.org/2000/svg">
<path d="M0 3.03788C0 2.39587 0.255037 1.78016 0.709005 1.32619C1.16297 0.872224 1.77869 0.617188 2.42069 0.617188H16.9449C17.5869 0.617188 18.2026 0.872224 18.6565 1.32619C19.1105 1.78016 19.3655 2.39587 19.3655 3.03788V12.7207C19.3655 13.3627 19.1105 13.9784 18.6565 14.4323C18.2026 14.8863 17.5869 15.1413 16.9449 15.1413H2.42069C1.77869 15.1413 1.16297 14.8863 0.709005 14.4323C0.255037 13.9784 0 13.3627 0 12.7207V3.03788ZM2.42069 1.82753C2.09969 1.82753 1.79183 1.95505 1.56485 2.18204C1.33787 2.40902 1.21035 2.71688 1.21035 3.03788V4.24823H18.1552V3.03788C18.1552 2.71688 18.0277 2.40902 17.8007 2.18204C17.5737 1.95505 17.2659 1.82753 16.9449 1.82753H2.42069ZM18.1552 6.66892H1.21035V12.7207C1.21035 13.0417 1.33787 13.3495 1.56485 13.5765C1.79183 13.8035 2.09969 13.931 2.42069 13.931H16.9449C17.2659 13.931 17.5737 13.8035 17.8007 13.5765C18.0277 13.3495 18.1552 13.0417 18.1552 12.7207V6.66892Z" fill="#6D6D6D"/>
</svg>
