<svg width="20" height="20" viewBox="0 0 20 20" fill="none" xmlns="http://www.w3.org/2000/svg">
<path d="M16.1143 12.2221C15.485 12.2226 14.8652 12.3764 14.3085 12.6702C13.7518 12.9641 13.2748 13.3891 12.9188 13.9086L7.50089 11.4596C7.88571 10.5294 7.8872 9.48445 7.50505 8.55309L12.9155 6.09156C13.4431 6.85548 14.2268 7.40479 15.1243 7.63985C16.0218 7.8749 16.9738 7.78014 17.8075 7.37274C18.6412 6.96534 19.3014 6.27229 19.6685 5.41931C20.0355 4.56633 20.0849 3.60991 19.8079 2.72354C19.5309 1.83717 18.9456 1.07956 18.1584 0.588138C17.3712 0.0967128 16.4341 -0.0959783 15.5171 0.0450173C14.6002 0.186013 13.764 0.651356 13.1604 1.35664C12.5568 2.06192 12.2257 2.96042 12.2271 3.88917C12.2307 4.10899 12.2529 4.32811 12.2937 4.54414L6.54199 7.16067C5.98957 6.64254 5.29801 6.29724 4.55225 6.16719C3.8065 6.03713 3.03903 6.12798 2.34415 6.42859C1.64926 6.72919 1.05722 7.22644 0.640759 7.85927C0.224296 8.49209 0.00155053 9.23291 -0.000112688 9.99073C-0.0017759 10.7485 0.217716 11.4903 0.631397 12.125C1.04508 12.7596 1.63493 13.2595 2.32849 13.5631C3.02205 13.8668 3.7891 13.961 4.53542 13.8343C5.28174 13.7075 5.97482 13.3652 6.5295 12.8495L12.2962 15.4561C12.2562 15.6719 12.2342 15.8907 12.2305 16.1102C12.2303 16.8794 12.458 17.6314 12.8848 18.2711C13.3116 18.9108 13.9183 19.4094 14.6282 19.7038C15.338 19.9983 16.1192 20.0753 16.8728 19.9253C17.6265 19.7753 18.3187 19.4049 18.8621 18.8609C19.4054 18.317 19.7754 17.624 19.9253 16.8695C20.0751 16.1151 19.9981 15.3331 19.704 14.6224C19.4099 13.9118 18.9118 13.3044 18.2729 12.8771C17.6339 12.4499 16.8827 12.2219 16.1143 12.2221V12.2221ZM16.1143 1.66679C16.5534 1.66662 16.9827 1.79682 17.3479 2.04092C17.7131 2.28502 17.9977 2.63205 18.1659 3.03812C18.334 3.4442 18.3781 3.89107 18.2926 4.32223C18.207 4.75338 17.9956 5.14945 17.6852 5.46034C17.3748 5.77123 16.9792 5.98297 16.5486 6.06879C16.1179 6.15461 15.6715 6.11065 15.2658 5.94247C14.8601 5.77428 14.5134 5.48944 14.2694 5.12395C14.0254 4.75846 13.8952 4.32875 13.8952 3.88917C13.8957 3.30004 14.1296 2.73515 14.5456 2.31849C14.9617 1.90183 15.5258 1.66745 16.1143 1.66679V1.66679ZM3.90668 12.2221C3.46758 12.2222 3.03829 12.092 2.67311 11.8479C2.30794 11.6038 2.02327 11.2568 1.85512 10.8507C1.68697 10.4447 1.64289 9.99779 1.72845 9.56663C1.81401 9.13548 2.02538 8.73941 2.33581 8.42852C2.64624 8.11763 3.0418 7.90588 3.47245 7.82007C3.9031 7.73425 4.3495 7.77821 4.75519 7.94639C5.16089 8.11457 5.50764 8.39942 5.75161 8.76491C5.99558 9.1304 6.1258 9.5601 6.1258 9.99969C6.12514 10.5888 5.89115 11.1535 5.47516 11.5701C5.05916 11.9867 4.4951 12.2212 3.90668 12.2221ZM16.1143 18.3326C15.6753 18.3326 15.2461 18.2022 14.881 17.958C14.5159 17.7138 14.2314 17.3668 14.0634 16.9607C13.8953 16.5546 13.8514 16.1077 13.937 15.6766C14.0227 15.2455 14.2341 14.8495 14.5446 14.5387C14.8551 14.2279 15.2506 14.0163 15.6812 13.9305C16.1119 13.8448 16.5582 13.8888 16.9639 14.057C17.3695 14.2252 17.7162 14.51 17.9602 14.8755C18.2041 15.241 18.3343 15.6707 18.3343 16.1102C18.3338 16.6995 18.0998 17.2645 17.6836 17.6812C17.2674 18.0979 16.703 18.3321 16.1143 18.3326V18.3326Z" fill="white"/>
</svg>
