<svg width="19" height="22" viewBox="0 0 19 22" fill="none" xmlns="http://www.w3.org/2000/svg">
<path d="M8.3359 0.795898C6.12509 0.795901 4.00483 1.66957 2.44155 3.22471C0.878267 4.77984 1.63606e-05 6.88906 0 9.08837C-1.14812e-06 11.2877 0.878242 13.3969 2.44153 14.9521C4.00481 16.5072 6.12508 17.3809 8.3359 17.3809C10.5467 17.3809 12.667 16.5072 14.2303 14.9521C15.7935 13.3969 16.6718 11.2877 16.6718 9.08837C16.6718 6.88906 15.7935 4.77984 14.2302 3.22471C12.667 1.66957 10.5467 0.795901 8.3359 0.795898ZM8.3359 2.23728C9.2594 2.23728 10.1739 2.41448 11.0271 2.75878C11.8803 3.10308 12.6555 3.60773 13.3085 4.24391C13.9615 4.88009 14.4795 5.63535 14.833 6.46656C15.1864 7.29778 15.3683 8.18867 15.3683 9.08837C15.3683 9.98807 15.1864 10.879 14.833 11.7102C14.4795 12.5414 13.9615 13.2966 13.3085 13.9328C12.6555 14.569 11.8803 15.0737 11.0271 15.418C10.1739 15.7623 9.2594 15.9395 8.3359 15.9395C6.47081 15.9394 4.68211 15.2176 3.3633 13.9328C2.04449 12.648 1.30359 10.9054 1.30359 9.08837C1.30359 7.27135 2.04449 5.52876 3.3633 4.24393C4.68211 2.9591 6.47081 2.23729 8.3359 2.23728Z" fill="#6D6D6D"/>
<path d="M18.2769 19.4614L14.5117 15.1191C13.8627 14.3706 13.0706 14.1102 12.7427 14.5375C12.4147 14.9648 12.6749 15.918 13.324 16.6665L17.0891 21.0087C17.7382 21.7572 18.5302 22.0176 18.8582 21.5903C19.1862 21.1631 18.9259 20.2099 18.2769 19.4614Z" fill="#6D6D6D"/>
</svg>
